<?xml version="1.0" encoding="UTF-8" standalone="no"?>
<!-- Created with Inkscape (http://www.inkscape.org/) -->

<svg
   width="46.231667mm"
   height="35.797714mm"
   viewBox="0 0 46.231667 35.797714"
   version="1.1"
   id="svg1"
   xml:space="preserve"
   xmlns="http://www.w3.org/2000/svg"
   xmlns:svg="http://www.w3.org/2000/svg"><defs
     id="defs1" /><g
     id="g1"
     transform="matrix(0.26458333,0,0,0.26458334,134.46226,-47.344467)"><g
       id="group-R5"
       transform="translate(-567.50331,118.72454)"><path
         id="path2"
         d="m 1290.06,748.93 -109.39,-147.399 -15.08,6.758 126.17,169.18 z M 1117.14,589.559 895.176,825.941 770.234,870.828 900.059,838.012 932.285,862.852 1077.54,1041.16 942.441,856.41 1158.55,606.762 933.34,849.09 908.191,829.98 Z m -354.718,356.429 97.91,-24.636 27.422,-69.981 -125.332,32.481 z m 16.902,18.633 85.449,-13.562 -7.031,-7.829 -81.785,17.711 z m 13.188,14.438 86.211,-12.508 -13.625,-15.129 -77.129,22.656 z m 13.179,14.441 86.965,-11.441 -13.574,-15.11 -77.812,21.711 z m 13.157,14.4 87.754,-10.369 -13.555,-15.031 -78.469,20.72 z m 13.132,14.4 88.54,-9.3 -13.5,-14.988 -79.137,19.778 z m 13.149,14.36 89.305,-8.18 -13.45,-14.95 -79.812,18.81 z m 13.101,14.36 90.098,-7.08 -13.379,-14.9 -80.496,17.84 z m 13.118,14.34 90.871,-5.98 -13.332,-14.83 -81.184,16.84 z m 13.054,14.31 91.711,-4.85 -13.281,-14.78 -81.863,15.87 z m 12.407,13.58 86.968,-9.91 -7.031,-7.81 -82.527,14.87 z m 169.421,-39.22 -145.468,-178.51 -43.75,53.121 134.388,157.309 z m 78.25,-73.311 103.92,-119.258 41.66,-50.402 -50.67,48.89 -19,-3.16 -75.91,85.922 v 29.301 l -55.08,72.268 z m -63.28,101.061 -68.76,15.63 -120.323,7.28 -140.113,-146.881 4.168,-82.289 234.394,-254.192 109.384,-50 84.39,17.692 118.76,160.441 v 67.711 l -221.9,264.608"
         style="fill:#3FB950;fill-opacity:1;fill-rule:nonzero;stroke:none"
         transform="matrix(0.13333333,0,0,-0.13333333,0,266.66667)" /><path
         id="path3"
         d="m 1151.56,985.539 c -3.43,12.063 -3.71,29.501 -6.32,33.971 -3.64,6.2 -9.86,6.76 -16.14,-1.48 -1.19,-1.57 -2.24,-2.76 -3.24,-3.77 10.06,-7.99 19.35,-17.979 25.7,-28.721"
         style="fill:#3FB950;fill-opacity:1;fill-rule:nonzero;stroke:none"
         transform="matrix(0.13333333,0,0,-0.13333333,0,266.66667)" /><path
         id="path4"
         d="m 1569.91,1511.73 -44.66,33.99 c -5.61,4.28 -13.62,3.3 -17.8,-2.17 l -48.24,-63.43 c -3.27,-4.32 -3.13,-10.11 -0.2,-14.49 l -4.39,-5.77 c -4.18,-5.48 -2.18,-8.34 4.39,-6.34 0,0 0.12,0.03 6.11,-4.54 9.86,-7.49 7.63,-44.5 12.74,-48.38 3.55,-2.69 0.51,-10.69 -3.01,-8.01 -9.34,7.1 -8.39,38.28 -12.01,44.47 -3.63,6.19 -9.86,6.76 -16.13,-1.48 -3.79,-4.98 -6.28,-7.48 -9.47,-5.05 -1.2,0.9 -1.2,0.9 -1.2,0.9 -0.44,1.64 -4.2,-1.5 -8.35,-6.97 l -18.44,-24.25 c -4.17,-5.48 -2.2,-8.33 4.37,-6.34 0,0 0.12,0.04 6.13,-4.53 9.87,-7.5 7.64,-44.51 12.75,-48.39 3.52,-2.69 0.49,-10.68 -3.03,-8.01 -9.33,7.1 -8.38,38.28 -12.01,44.46 -3.62,6.2 -9.84,6.78 -16.12,-1.47 -3.78,-4.98 -6.3,-7.48 -9.47,-5.05 -1.2,0.9 -1.2,0.9 -1.2,0.9 -0.44,1.64 -4.2,-1.5 -8.35,-6.98 l -18.45,-24.24 c -4.16,-5.47 -2.18,-8.33 4.39,-6.34 0,0 0.12,0.04 6.12,-4.53 9.87,-7.5 7.65,-44.51 12.75,-48.39 3.51,-2.69 0.49,-10.69 -3.03,-8.01 -9.32,7.1 -8.37,38.28 -12.01,44.46 -3.63,6.2 -9.86,6.78 -16.11,-1.46 -3.79,-4.99 -6.3,-7.5 -9.51,-5.06 -1.19,0.9 -1.19,0.9 -1.19,0.9 -0.44,1.64 -4.18,-1.51 -8.35,-6.98 l -18.43,-24.24 c -4.17,-5.47 -2.17,-8.33 4.39,-6.34 0,0 0.13,0.04 6.1,-4.53 9.87,-7.49 7.65,-44.51 12.75,-48.39 3.54,-2.69 0.52,-10.69 -3,-8.01 -9.36,7.09 -8.4,38.29 -12.01,44.46 -3.64,6.21 -9.86,6.78 -16.14,-1.46 -3.78,-4.98 -6.27,-7.5 -9.48,-5.06 -1.19,0.9 -1.19,0.9 -1.19,0.9 -0.44,1.64 -4.18,-1.51 -8.36,-6.98 l -18.43,-24.24 c -4.17,-5.47 -2.19,-8.33 4.4,-6.35 0,0 0.1,0.05 6.1,-4.52 9.87,-7.49 7.64,-44.51 12.75,-48.39 3.54,-2.68 0.49,-10.69 -3.03,-8.01 -9.33,7.1 -8.38,38.28 -11.99,44.47 -3.64,6.2 -9.87,6.76 -16.14,-1.47 -3.78,-4.98 -6.29,-7.5 -9.47,-5.06 -1.2,0.91 -1.2,0.91 -1.2,0.91 -0.44,1.63 -4.2,-1.52 -8.35,-6.98 l -18.46,-24.25 c -4.15,-5.47 -2.17,-8.32 4.4,-6.34 0,0 0.13,0.04 6.13,-4.52 9.86,-7.5 7.64,-44.52 12.75,-48.39 3.51,-2.69 0.48,-10.7 -3.03,-8.01 -9.33,7.09 -8.38,38.28 -12.01,44.46 -3.62,6.2 -9.87,6.76 -16.13,-1.47 -3.78,-4.98 -6.3,-7.5 -9.49,-5.05 -1.17,0.9 -1.17,0.9 -1.17,0.9 -0.44,1.64 -4.2,-1.51 -8.35,-6.98 l -18.46,-24.25 c -4.15,-5.47 -2.17,-8.32 4.4,-6.35 0,0 0.11,0.05 6.1,-4.51 9.86,-7.49 7.64,-44.52 12.75,-48.39 3.53,-2.69 0.5,-10.7 -3.01,-8.01 -9.35,7.09 -8.4,38.28 -12.01,44.46 -3.64,6.2 -9.87,6.76 -16.14,-1.46 -3.79,-4.99 -6.28,-7.5 -9.47,-5.06 -1.2,0.91 -1.2,0.91 -1.2,0.91 -0.44,1.63 -4.17,-1.52 -8.35,-6.99 l -18.44,-24.25 c -4.17,-5.46 -2.2,-8.32 4.4,-6.34 0,0 0.12,0.04 6.1,-4.52 9.86,-7.51 7.65,-44.528 12.74,-48.399 3.55,-2.692 0.49,-10.692 -3.02,-8.012 -0.41,0.332 -0.74,0.93 -1.13,1.359 1.06,-2.558 2.01,-5.109 2.62,-7.66 0.29,-1.136 0.59,-2.277 0.88,-3.398 l 350.81,461.18 c 4.98,-1.63 10.62,-0.24 13.89,4.08 l 48.27,63.43 c 4.15,5.47 2.96,13.45 -2.66,17.7"
         style="fill:#3FB950;fill-opacity:1;fill-rule:nonzero;stroke:none"
         transform="matrix(0.13333333,0,0,-0.13333333,0,266.66667)" /><path
         id="path5"
         d="m 1500.69,1524.77 c 4.69,18.77 64.58,50 98.44,-18.75 33.87,-68.75 75.52,-252.62 32.82,-280.75 -42.7,-28.12 -78.4,35.94 -80.72,80.22 -1.74,32.97 5.99,144.28 -8.2,160.43 0,0 8.71,26.04 21.73,14.06 13.03,-11.97 0.63,-111.27 10.62,-162.51 19.19,-98.35 60.74,-88.54 40.95,7.81 -19.79,96.36 -36.75,223.09 -78.14,204.7 -18.75,-8.33 -42.7,-26.04 -37.5,-5.21"
         style="fill:#3FB950;fill-opacity:1;fill-rule:nonzero;stroke:none"
         transform="matrix(0.13333333,0,0,-0.13333333,0,266.66667)" /><path
         id="path6"
         d="m 1096.88,533.648 h 658.37 l -589.62,62.5 -68.75,-10.41 -69.35,22.762 -582.784,-74.852 h 652.134"
         style="fill:#3FB950;fill-opacity:1;fill-rule:nonzero;stroke:none"
         transform="matrix(0.13333333,0,0,-0.13333333,0,266.66667)" /></g></g></svg>
